<svg xmlns="http://www.w3.org/2000/svg" width="54" height="54" viewBox="0 0 54 54" fill="none">
  <g clip-path="url(#clip0_4776_8222)">
    <path d="M39.4102 25.5721C38.1426 27.3946 36.4427 28.8743 34.4628 29.8786C32.483 30.8829 30.2849 31.3806 28.0656 31.327C25.8462 31.2733 23.6748 30.6701 21.7457 29.5714C19.8167 28.4726 18.1902 26.9126 17.012 25.031C17.0074 25.1094 16.9969 25.1873 16.9806 25.2641C16.874 25.8094 16.5441 26.2701 15.8843 27.1916L15.2865 28.0283C12.9695 31.2686 11.8106 32.8882 12.4531 34.3059C13.0958 35.7214 15.1145 35.9986 19.152 36.5507L20.1963 36.693C21.3428 36.8502 21.9177 36.9283 22.4051 37.2218C22.8936 37.5164 23.2418 37.993 23.9371 38.945L24.5702 39.813C27.02 43.1657 28.2437 44.842 29.7574 44.7229C31.2711 44.6039 32.0745 42.7701 33.6758 39.1012L34.0923 38.151C34.5466 37.108 34.7748 36.5877 35.1841 36.2233C35.5935 35.8589 36.1367 35.6924 37.2265 35.3608L38.2161 35.0592C42.0459 33.8911 43.9614 33.3066 44.2547 31.8191C44.5483 30.3271 43.0249 28.9175 39.9783 26.0962L39.4102 25.5721Z" fill="#F8AD3E"/>
    <path opacity="0.5" d="M16.476 21.9707L16.7066 23.0087C16.9603 24.1488 17.0872 24.7188 16.9806 25.2641C16.9962 25.1867 17.0067 25.109 17.012 25.031C18.1902 26.9128 19.8168 28.473 21.746 29.5718C23.6752 30.6706 25.8468 31.2738 28.0664 31.3273C30.2859 31.3808 32.4841 30.883 34.464 29.8784C36.444 28.8739 38.1438 27.3939 39.4114 25.5711L39.1883 25.368C38.3243 24.5661 37.8911 24.1651 37.6551 23.6457C37.42 23.1276 37.4078 22.5485 37.3856 21.3906L37.3651 20.3368C37.285 16.2637 37.2434 14.2265 35.9096 13.4241C34.577 12.6208 32.8331 13.5833 29.3473 15.5108L28.4459 16.0088C27.4554 16.5565 26.9596 16.8308 26.4045 16.8746C25.8505 16.9174 25.299 16.7254 24.1959 16.3414L23.1927 15.9912C19.3123 14.6417 17.3726 13.9664 16.2555 14.9608C15.1385 15.9553 15.5847 17.9601 16.476 21.9707Z" fill="#FFCB08"/>
  </g>
  <defs>
    <clipPath id="clip0_4776_8222">
      <rect width="37.9036" height="37.9036" fill="white" transform="translate(0 25.2031) rotate(-41.6766)"/>
    </clipPath>
  </defs>
</svg>