<svg xmlns="http://www.w3.org/2000/svg" width="48" height="48" viewBox="0 0 48 48" fill="none">
  <path d="M40 8C42.22 8 44 9.78 44 12V36C44 38.22 42.22 40 40 40H8C5.78 40 4 38.22 4 36V12C4 9.78 5.78 8 8 8H40ZM17 30V18H14.5V25L9.5 18H7V30H9.5V23L14.6 30H17ZM27 20.52V18H19V30H27V27.5H22V25.28H27V22.76H22V20.52H27ZM41 28V18H38.5V27H36.26V20H33.76V27H31.5V18H29V28C29 28.5304 29.2107 29.0391 29.5858 29.4142C29.9609 29.7893 30.4696 30 31 30H39C39.5304 30 40.0391 29.7893 40.4142 29.4142C40.7893 29.0391 41 28.5304 41 28Z" fill="#F8AD3E"/>
</svg>